<svg width="24" height="24" viewBox="0 0 24 24" fill="none" xmlns="http://www.w3.org/2000/svg">
<path d="M3.91416 14.9031C3.70562 15.1098 3.59187 15.3728 3.59187 15.6828C3.59187 16.3029 4.08479 16.8008 4.71042 16.8008C5.02324 16.8008 5.30762 16.6693 5.52564 16.4532L12.0095 9.877L18.4743 16.4532C18.6924 16.6693 18.9862 16.8008 19.2896 16.8008C19.9152 16.8008 20.4081 16.3029 20.4081 15.6828C20.4081 15.3728 20.2944 15.1098 20.0858 14.9031L12.8816 7.59412C12.6351 7.33108 12.3318 7.20895 12 7.19955C11.6682 7.19955 11.3838 7.33108 11.1279 7.59412L3.91416 14.9031Z" fill="#111111"/>
</svg>
