<svg width="18" height="10" viewBox="0 0 18 10" fill="none" xmlns="http://www.w3.org/2000/svg">
<path d="M17.0857 2.0979C17.2943 1.89122 17.408 1.62817 17.408 1.31815C17.408 0.698108 16.9151 0.200197 16.2895 0.200197C15.9767 0.200197 15.6923 0.331721 15.4743 0.547796L8.99044 7.12398L2.52557 0.547796C2.30755 0.331721 2.01369 0.200197 1.71035 0.200197C1.08472 0.200197 0.591797 0.698109 0.591797 1.31815C0.591797 1.62817 0.705548 1.89122 0.914093 2.0979L8.11835 9.40686C8.36481 9.6699 8.66815 9.79203 8.99992 9.80143C9.3317 9.80143 9.61607 9.6699 9.87201 9.40686L17.0857 2.0979Z" fill="#111111"/>
</svg>
